<svg width="24" height="24" viewBox="0 0 24 24" fill="none" xmlns="http://www.w3.org/2000/svg">
<path d="M5.14296 10.7141C5.14296 10.1458 5.36873 9.60078 5.77059 9.19892C6.17245 8.79705 6.7175 8.57129 7.28582 8.57129C7.85414 8.57129 8.39918 8.79705 8.80105 9.19892C9.20291 9.60078 9.42868 10.1458 9.42868 10.7141C9.42868 11.2825 9.20291 11.8275 8.80105 12.2294C8.39918 12.6312 7.85414 12.857 7.28582 12.857C6.7175 12.857 6.17245 12.6312 5.77059 12.2294C5.36873 11.8275 5.14296 11.2825 5.14296 10.7141ZM7.28582 9.857C7.05849 9.857 6.84047 9.94731 6.67973 10.1081C6.51898 10.2688 6.42868 10.4868 6.42868 10.7141C6.42868 10.9415 6.51898 11.1595 6.67973 11.3202C6.84047 11.481 7.05849 11.5713 7.28582 11.5713C7.51315 11.5713 7.73116 11.481 7.89191 11.3202C8.05266 11.1595 8.14296 10.9415 8.14296 10.7141C8.14296 10.4868 8.05266 10.2688 7.89191 10.1081C7.73116 9.94731 7.51315 9.857 7.28582 9.857ZM7.28582 14.5713C6.7175 14.5713 6.17245 14.7971 5.77059 15.1989C5.36873 15.6008 5.14296 16.1458 5.14296 16.7141C5.14296 17.2825 5.36873 17.8275 5.77059 18.2294C6.17245 18.6312 6.7175 18.857 7.28582 18.857C7.85414 18.857 8.39918 18.6312 8.80105 18.2294C9.20291 17.8275 9.42868 17.2825 9.42868 16.7141C9.42868 16.1458 9.20291 15.6008 8.80105 15.1989C8.39918 14.7971 7.85414 14.5713 7.28582 14.5713ZM6.42868 16.7141C6.42868 16.4868 6.51898 16.2688 6.67973 16.1081C6.84047 15.9473 7.05849 15.857 7.28582 15.857C7.51315 15.857 7.73116 15.9473 7.89191 16.1081C8.05266 16.2688 8.14296 16.4868 8.14296 16.7141C8.14296 16.9415 8.05266 17.1595 7.89191 17.3202C7.73116 17.481 7.51315 17.5713 7.28582 17.5713C7.05849 17.5713 6.84047 17.481 6.67973 17.3202C6.51898 17.1595 6.42868 16.9415 6.42868 16.7141ZM11.143 10.4999C11.143 10.3294 11.2107 10.1659 11.3313 10.0453C11.4518 9.92473 11.6153 9.857 11.7858 9.857H18.2144C18.3849 9.857 18.5484 9.92473 18.669 10.0453C18.7895 10.1659 18.8572 10.3294 18.8572 10.4999C18.8572 10.6704 18.7895 10.8339 18.669 10.9544C18.5484 11.075 18.3849 11.1427 18.2144 11.1427H11.7858C11.6153 11.1427 11.4518 11.075 11.3313 10.9544C11.2107 10.8339 11.143 10.6704 11.143 10.4999ZM11.7858 15.857C11.6153 15.857 11.4518 15.9247 11.3313 16.0453C11.2107 16.1659 11.143 16.3294 11.143 16.4999C11.143 16.6704 11.2107 16.8339 11.3313 16.9544C11.4518 17.075 11.6153 17.1427 11.7858 17.1427H18.2144C18.3849 17.1427 18.5484 17.075 18.669 16.9544C18.7895 16.8339 18.8572 16.6704 18.8572 16.4999C18.8572 16.3294 18.7895 16.1659 18.669 16.0453C18.5484 15.9247 18.3849 15.857 18.2144 15.857H11.7858ZM5.14296 6.21415C5.14296 6.04365 5.21069 5.88014 5.33125 5.75958C5.45181 5.63902 5.61532 5.57129 5.78582 5.57129H18.2144C18.3849 5.57129 18.5484 5.63902 18.669 5.75958C18.7895 5.88014 18.8572 6.04365 18.8572 6.21415C18.8572 6.38464 18.7895 6.54816 18.669 6.66871C18.5484 6.78927 18.3849 6.857 18.2144 6.857H5.78582C5.61532 6.857 5.45181 6.78927 5.33125 6.66871C5.21069 6.54816 5.14296 6.38464 5.14296 6.21415ZM5.78582 2.57129C4.93334 2.57129 4.11577 2.90994 3.51298 3.51273C2.91018 4.11553 2.57153 4.93309 2.57153 5.78557V18.2141C2.57153 19.0666 2.91018 19.8842 3.51298 20.487C4.11577 21.0898 4.93334 21.4284 5.78582 21.4284H18.2144C19.0669 21.4284 19.8844 21.0898 20.4872 20.487C21.09 19.8842 21.4287 19.0666 21.4287 18.2141V5.78557C21.4287 4.93309 21.09 4.11553 20.4872 3.51273C19.8844 2.90994 19.0669 2.57129 18.2144 2.57129H5.78582ZM3.85725 5.78557C3.85725 5.27409 4.06044 4.78355 4.42211 4.42187C4.78379 4.06019 5.27433 3.857 5.78582 3.857H18.2144C18.7259 3.857 19.2164 4.06019 19.5781 4.42187C19.9398 4.78355 20.143 5.27409 20.143 5.78557V18.2141C20.143 18.7256 19.9398 19.2162 19.5781 19.5779C19.2164 19.9395 18.7259 20.1427 18.2144 20.1427H5.78582C5.27433 20.1427 4.78379 19.9395 4.42211 19.5779C4.06044 19.2162 3.85725 18.7256 3.85725 18.2141V5.78557Z" fill="#FAFAFA"/>
</svg>
