<svg width="24" height="24" viewBox="0 0 24 24" fill="none" xmlns="http://www.w3.org/2000/svg">
<path d="M7.2001 3.59961C6.24532 3.59961 5.32964 3.97889 4.65451 4.65403C3.97938 5.32916 3.6001 6.24483 3.6001 7.19961V16.7996C3.6001 17.7544 3.97938 18.6701 4.65451 19.3452C5.32964 20.0203 6.24532 20.3996 7.2001 20.3996H11.5201C11.3239 20.0161 11.1659 19.6141 11.0485 19.1996H7.2001C6.56358 19.1996 5.95313 18.9468 5.50304 18.4967C5.05295 18.0466 4.8001 17.4361 4.8001 16.7996V7.19961C4.8001 6.56309 5.05295 5.95264 5.50304 5.50255C5.95313 5.05247 6.56358 4.79961 7.2001 4.79961H16.8001C17.4366 4.79961 18.0471 5.05247 18.4972 5.50255C18.9472 5.95264 19.2001 6.56309 19.2001 7.19961V11.048C19.6189 11.1668 20.0197 11.324 20.4001 11.5196V7.19961C20.4001 6.24483 20.0208 5.32916 19.3457 4.65403C18.6706 3.97889 17.7549 3.59961 16.8001 3.59961H7.2001ZM11.4001 11.9996H13.6045C14.6785 11.2436 15.9877 10.7996 17.4001 10.7996H11.4001C11.241 10.7996 11.0884 10.8628 10.9758 10.9753C10.8633 11.0879 10.8001 11.2405 10.8001 11.3996C10.8001 11.5587 10.8633 11.7114 10.9758 11.8239C11.0884 11.9364 11.241 11.9996 11.4001 11.9996ZM6.6001 5.99961C6.44097 5.99961 6.28836 6.06282 6.17583 6.17535C6.06331 6.28787 6.0001 6.44048 6.0001 6.59961C6.0001 6.75874 6.06331 6.91135 6.17583 7.02387C6.28836 7.1364 6.44097 7.19961 6.6001 7.19961H17.4001C17.5592 7.19961 17.7118 7.1364 17.8244 7.02387C17.9369 6.91135 18.0001 6.75874 18.0001 6.59961C18.0001 6.44048 17.9369 6.28787 17.8244 6.17535C17.7118 6.06282 17.5592 5.99961 17.4001 5.99961H6.6001ZM7.8001 13.1996C8.27749 13.1996 8.73532 13.01 9.07289 12.6724C9.41046 12.3348 9.6001 11.877 9.6001 11.3996C9.6001 10.9222 9.41046 10.4644 9.07289 10.1268C8.73532 9.78925 8.27749 9.59961 7.8001 9.59961C7.32271 9.59961 6.86487 9.78925 6.52731 10.1268C6.18974 10.4644 6.0001 10.9222 6.0001 11.3996C6.0001 11.877 6.18974 12.3348 6.52731 12.6724C6.86487 13.01 7.32271 13.1996 7.8001 13.1996ZM7.8001 11.9996C7.64097 11.9996 7.48836 11.9364 7.37583 11.8239C7.26331 11.7114 7.2001 11.5587 7.2001 11.3996C7.2001 11.2405 7.26331 11.0879 7.37583 10.9753C7.48836 10.8628 7.64097 10.7996 7.8001 10.7996C7.95923 10.7996 8.11184 10.8628 8.22436 10.9753C8.33688 11.0879 8.4001 11.2405 8.4001 11.3996C8.4001 11.5587 8.33688 11.7114 8.22436 11.8239C8.11184 11.9364 7.95923 11.9996 7.8001 11.9996ZM7.8001 17.9996C8.27749 17.9996 8.73532 17.81 9.07289 17.4724C9.41046 17.1348 9.6001 16.677 9.6001 16.1996C9.6001 15.7222 9.41046 15.2644 9.07289 14.9268C8.73532 14.5893 8.27749 14.3996 7.8001 14.3996C7.32271 14.3996 6.86487 14.5893 6.52731 14.9268C6.18974 15.2644 6.0001 15.7222 6.0001 16.1996C6.0001 16.677 6.18974 17.1348 6.52731 17.4724C6.86487 17.81 7.32271 17.9996 7.8001 17.9996ZM7.8001 15.5996C7.95923 15.5996 8.11184 15.6628 8.22436 15.7753C8.33688 15.8879 8.4001 16.0405 8.4001 16.1996C8.4001 16.3587 8.33688 16.5114 8.22436 16.6239C8.11184 16.7364 7.95923 16.7996 7.8001 16.7996C7.64097 16.7996 7.48836 16.7364 7.37583 16.6239C7.26331 16.5114 7.2001 16.3587 7.2001 16.1996C7.2001 16.0405 7.26331 15.8879 7.37583 15.7753C7.48836 15.6628 7.64097 15.5996 7.8001 15.5996ZM22.8001 17.3996C22.8001 18.8318 22.2312 20.2053 21.2185 21.218C20.2058 22.2307 18.8323 22.7996 17.4001 22.7996C15.9679 22.7996 14.5944 22.2307 13.5817 21.218C12.569 20.2053 12.0001 18.8318 12.0001 17.3996C12.0001 15.9674 12.569 14.5939 13.5817 13.5812C14.5944 12.5685 15.9679 11.9996 17.4001 11.9996C18.8323 11.9996 20.2058 12.5685 21.2185 13.5812C22.2312 14.5939 22.8001 15.9674 22.8001 17.3996ZM18.0001 14.9996C18.0001 14.8405 17.9369 14.6879 17.8244 14.5753C17.7118 14.4628 17.5592 14.3996 17.4001 14.3996C17.241 14.3996 17.0884 14.4628 16.9758 14.5753C16.8633 14.6879 16.8001 14.8405 16.8001 14.9996V16.7996H15.0001C14.841 16.7996 14.6884 16.8628 14.5758 16.9753C14.4633 17.0879 14.4001 17.2405 14.4001 17.3996C14.4001 17.5587 14.4633 17.7114 14.5758 17.8239C14.6884 17.9364 14.841 17.9996 15.0001 17.9996H16.8001V19.7996C16.8001 19.9587 16.8633 20.1114 16.9758 20.2239C17.0884 20.3364 17.241 20.3996 17.4001 20.3996C17.5592 20.3996 17.7118 20.3364 17.8244 20.2239C17.9369 20.1114 18.0001 19.9587 18.0001 19.7996V17.9996H19.8001C19.9592 17.9996 20.1118 17.9364 20.2244 17.8239C20.3369 17.7114 20.4001 17.5587 20.4001 17.3996C20.4001 17.2405 20.3369 17.0879 20.2244 16.9753C20.1118 16.8628 19.9592 16.7996 19.8001 16.7996H18.0001V14.9996Z" fill="#FAFAFA"/>
</svg>
