<svg width="24" height="24" viewBox="0 0 24 24" fill="none" xmlns="http://www.w3.org/2000/svg">
<path d="M12 12C14.2091 12 16 10.2091 16 8C16 5.79086 14.2091 4 12 4C9.79086 4 8 5.79086 8 8C8 10.2091 9.79086 12 12 12Z" stroke="#FAFAFA" stroke-linecap="round"/>
<path fill-rule="evenodd" clip-rule="evenodd" d="M15.2759 15.9999C13.8643 15.5578 12.3777 15.4061 10.9059 15.5539C9.2659 15.7159 7.7149 16.2399 6.4499 17.0709C5.1859 17.9029 4.2539 19.0139 3.8019 20.2789C3.77671 20.3413 3.76441 20.4083 3.76572 20.4756C3.76703 20.5429 3.78194 20.6093 3.80955 20.6708C3.83716 20.7322 3.87689 20.7874 3.92637 20.8331C3.97585 20.8788 4.03405 20.9141 4.09749 20.9367C4.16092 20.9594 4.22828 20.969 4.29552 20.9649C4.36275 20.9609 4.42848 20.9433 4.48876 20.9133C4.54904 20.8832 4.60262 20.8413 4.64629 20.79C4.68996 20.7387 4.72282 20.6792 4.7429 20.6149C5.1099 19.5879 5.8849 18.6399 6.9999 17.9069C8.1149 17.1729 9.5079 16.6969 11.0049 16.5489C11.5549 16.4949 12.1079 16.4859 12.6539 16.5209C13.0217 16.1851 13.5019 15.9993 13.9999 15.9999H15.2759Z" fill="#FAFAFA"/>
<path d="M18 14V22M22 18H14" stroke="#FAFAFA" stroke-linecap="round"/>
</svg>
