<svg width="24" height="24" viewBox="0 0 24 24" fill="none" xmlns="http://www.w3.org/2000/svg">
<path fill-rule="evenodd" clip-rule="evenodd" d="M21.6 8.30742H2.39995V21.5074H21.6V8.30742ZM2.39995 7.10742C2.08169 7.10742 1.77647 7.23385 1.55142 7.45889C1.32638 7.68394 1.19995 7.98916 1.19995 8.30742V21.5074C1.19995 21.8257 1.32638 22.1309 1.55142 22.3559C1.77647 22.581 2.08169 22.7074 2.39995 22.7074H21.6C21.9182 22.7074 22.2234 22.581 22.4485 22.3559C22.6735 22.1309 22.8 21.8257 22.8 21.5074V8.30742C22.8 7.98916 22.6735 7.68394 22.4485 7.45889C22.2234 7.23385 21.9182 7.10742 21.6 7.10742H2.39995Z" fill="#FAFAFA"/>
<path fill-rule="evenodd" clip-rule="evenodd" d="M7.19998 11.3079C7.19998 11.1488 7.26319 10.9962 7.37571 10.8836C7.48823 10.7711 7.64085 10.7079 7.79998 10.7079H16.2C16.3591 10.7079 16.5117 10.7711 16.6242 10.8836C16.7368 10.9962 16.8 11.1488 16.8 11.3079C16.8 11.467 16.7368 11.6197 16.6242 11.7322C16.5117 11.8447 16.3591 11.9079 16.2 11.9079H7.79998C7.64085 11.9079 7.48823 11.8447 7.37571 11.7322C7.26319 11.6197 7.19998 11.467 7.19998 11.3079ZM5.99998 14.9079C5.99998 14.7488 6.06319 14.5962 6.17571 14.4836C6.28823 14.3711 6.44085 14.3079 6.59998 14.3079H17.4C17.5591 14.3079 17.7117 14.3711 17.8242 14.4836C17.9368 14.5962 18 14.7488 18 14.9079C18 15.067 17.9368 15.2197 17.8242 15.3322C17.7117 15.4447 17.5591 15.5079 17.4 15.5079H6.59998C6.44085 15.5079 6.28823 15.4447 6.17571 15.3322C6.06319 15.2197 5.99998 15.067 5.99998 14.9079ZM7.19998 18.5079C7.19998 18.3488 7.26319 18.1962 7.37571 18.0836C7.48823 17.9711 7.64085 17.9079 7.79998 17.9079H16.2C16.3591 17.9079 16.5117 17.9711 16.6242 18.0836C16.7368 18.1962 16.8 18.3488 16.8 18.5079C16.8 18.667 16.7368 18.8197 16.6242 18.9322C16.5117 19.0447 16.3591 19.1079 16.2 19.1079H7.79998C7.64085 19.1079 7.48823 19.0447 7.37571 18.9322C7.26319 18.8197 7.19998 18.667 7.19998 18.5079ZM14.1216 2.87791C13.843 2.59925 13.5122 2.3782 13.1482 2.22739C12.7842 2.07657 12.394 1.99895 12 1.99895C11.6059 1.99895 11.2158 2.07657 10.8517 2.22739C10.4877 2.3782 10.157 2.59925 9.87838 2.87791L5.22478 7.53271C5.11211 7.64537 4.95931 7.70867 4.79998 7.70867C4.64065 7.70867 4.48784 7.64537 4.37518 7.53271C4.26251 7.42004 4.19922 7.26724 4.19922 7.10791C4.19922 7.02902 4.21476 6.9509 4.24495 6.87801C4.27514 6.80512 4.31939 6.73889 4.37518 6.68311L9.03118 2.02951C9.81879 1.24213 10.8869 0.799805 12.0006 0.799805C13.1143 0.799805 14.1824 1.24213 14.97 2.02951L19.6248 6.68431C19.6805 6.74009 19.7247 6.80631 19.7548 6.87916C19.7849 6.95202 19.8004 7.0301 19.8003 7.10893C19.8003 7.18777 19.7847 7.26582 19.7544 7.33864C19.7242 7.41145 19.68 7.4776 19.6242 7.53331C19.5684 7.58902 19.5022 7.63319 19.4293 7.66331C19.3565 7.69342 19.2784 7.7089 19.1996 7.70884C19.1207 7.70879 19.0427 7.6932 18.9698 7.66298C18.897 7.63276 18.8309 7.58849 18.7752 7.53271L14.1216 2.87791Z" fill="#FAFAFA"/>
</svg>
