<svg width="40" height="40" viewBox="0 0 40 40" fill="none" xmlns="http://www.w3.org/2000/svg">
<path d="M8.57136 17.8576C8.57136 16.9104 8.94763 16.002 9.61741 15.3322C10.2872 14.6624 11.1956 14.2861 12.1428 14.2861C13.09 14.2861 13.9984 14.6624 14.6682 15.3322C15.3379 16.002 15.7142 16.9104 15.7142 17.8576C15.7142 18.8048 15.3379 19.7132 14.6682 20.3829C13.9984 21.0527 13.09 21.429 12.1428 21.429C11.1956 21.429 10.2872 21.0527 9.61741 20.3829C8.94763 19.7132 8.57136 18.8048 8.57136 17.8576ZM12.1428 16.429C11.7639 16.429 11.4005 16.5795 11.1326 16.8474C10.8647 17.1153 10.7142 17.4787 10.7142 17.8576C10.7142 18.2364 10.8647 18.5998 11.1326 18.8677C11.4005 19.1356 11.7639 19.2861 12.1428 19.2861C12.5217 19.2861 12.885 19.1356 13.1529 18.8677C13.4208 18.5998 13.5714 18.2364 13.5714 17.8576C13.5714 17.4787 13.4208 17.1153 13.1529 16.8474C12.885 16.5795 12.5217 16.429 12.1428 16.429ZM12.1428 24.2861C11.1956 24.2861 10.2872 24.6624 9.61741 25.3322C8.94763 26.002 8.57136 26.9104 8.57136 27.8576C8.57136 28.8048 8.94763 29.7132 9.61741 30.3829C10.2872 31.0527 11.1956 31.429 12.1428 31.429C13.09 31.429 13.9984 31.0527 14.6682 30.3829C15.3379 29.7132 15.7142 28.8048 15.7142 27.8576C15.7142 26.9104 15.3379 26.002 14.6682 25.3322C13.9984 24.6624 13.09 24.2861 12.1428 24.2861ZM10.7142 27.8576C10.7142 27.4787 10.8647 27.1153 11.1326 26.8474C11.4005 26.5795 11.7639 26.429 12.1428 26.429C12.5217 26.429 12.885 26.5795 13.1529 26.8474C13.4208 27.1153 13.5714 27.4787 13.5714 27.8576C13.5714 28.2364 13.4208 28.5998 13.1529 28.8677C12.885 29.1356 12.5217 29.2861 12.1428 29.2861C11.7639 29.2861 11.4005 29.1356 11.1326 28.8677C10.8647 28.5998 10.7142 28.2364 10.7142 27.8576ZM18.5714 17.5004C18.5714 17.2163 18.6842 16.9437 18.8852 16.7428C19.0861 16.5419 19.3586 16.429 19.6428 16.429H30.3571C30.6412 16.429 30.9138 16.5419 31.1147 16.7428C31.3156 16.9437 31.4285 17.2163 31.4285 17.5004C31.4285 17.7846 31.3156 18.0571 31.1147 18.258C30.9138 18.459 30.6412 18.5718 30.3571 18.5718H19.6428C19.3586 18.5718 19.0861 18.459 18.8852 18.258C18.6842 18.0571 18.5714 17.7846 18.5714 17.5004ZM19.6428 26.429C19.3586 26.429 19.0861 26.5419 18.8852 26.7428C18.6842 26.9437 18.5714 27.2163 18.5714 27.5004C18.5714 27.7846 18.6842 28.0571 18.8852 28.258C19.0861 28.459 19.3586 28.5718 19.6428 28.5718H30.3571C30.6412 28.5718 30.9138 28.459 31.1147 28.258C31.3156 28.0571 31.4285 27.7846 31.4285 27.5004C31.4285 27.2163 31.3156 26.9437 31.1147 26.7428C30.9138 26.5419 30.6412 26.429 30.3571 26.429H19.6428ZM8.57136 10.3576C8.57136 10.0734 8.68424 9.80088 8.88517 9.59995C9.0861 9.39902 9.35863 9.28613 9.64279 9.28613H30.3571C30.6412 9.28613 30.9138 9.39902 31.1147 9.59995C31.3156 9.80088 31.4285 10.0734 31.4285 10.3576C31.4285 10.6417 31.3156 10.9142 31.1147 11.1152C30.9138 11.3161 30.6412 11.429 30.3571 11.429H9.64279C9.35863 11.429 9.0861 11.3161 8.88517 11.1152C8.68424 10.9142 8.57136 10.6417 8.57136 10.3576ZM9.64279 4.28613C8.22198 4.28613 6.85937 4.85054 5.85472 5.8552C4.85006 6.85986 4.28564 8.22247 4.28564 9.64328V30.3576C4.28564 31.7784 4.85006 33.141 5.85472 34.1456C6.85937 35.1503 8.22198 35.7147 9.64279 35.7147H30.3571C31.7779 35.7147 33.1405 35.1503 34.1451 34.1456C35.1498 33.141 35.7142 31.7784 35.7142 30.3576V9.64328C35.7142 8.22247 35.1498 6.85986 34.1451 5.8552C33.1405 4.85054 31.7779 4.28613 30.3571 4.28613H9.64279ZM6.4285 9.64328C6.4285 8.79079 6.76715 7.97323 7.36994 7.37043C7.97274 6.76764 8.79031 6.42899 9.64279 6.42899H30.3571C31.2096 6.42899 32.0271 6.76764 32.6299 7.37043C33.2327 7.97323 33.5714 8.79079 33.5714 9.64328V30.3576C33.5714 31.21 33.2327 32.0276 32.6299 32.6304C32.0271 33.2332 31.2096 33.5718 30.3571 33.5718H9.64279C8.79031 33.5718 7.97274 33.2332 7.36994 32.6304C6.76715 32.0276 6.4285 31.21 6.4285 30.3576V9.64328Z" fill="black"/>
</svg>
