<svg width="40" height="40" viewBox="0 0 40 40" fill="none" xmlns="http://www.w3.org/2000/svg">
<path d="M19.9999 20.0003C23.6818 20.0003 26.6666 17.0156 26.6666 13.3337C26.6666 9.65176 23.6818 6.66699 19.9999 6.66699C16.318 6.66699 13.3333 9.65176 13.3333 13.3337C13.3333 17.0156 16.318 20.0003 19.9999 20.0003Z" stroke="black" stroke-linecap="round"/>
<path fill-rule="evenodd" clip-rule="evenodd" d="M25.4599 26.6668C23.1072 25.9299 20.6296 25.6771 18.1766 25.9234C15.4432 26.1934 12.8582 27.0668 10.7499 28.4518C8.64325 29.8384 7.08991 31.6901 6.33658 33.7984C6.2946 33.9026 6.27409 34.0141 6.27628 34.1263C6.27847 34.2386 6.30332 34.3492 6.34933 34.4516C6.39534 34.554 6.46157 34.6461 6.54403 34.7222C6.6265 34.7984 6.72351 34.8571 6.82923 34.8949C6.93495 34.9326 7.04721 34.9486 7.15927 34.9419C7.27133 34.9352 7.38088 34.9059 7.48135 34.8558C7.58181 34.8057 7.67111 34.7358 7.7439 34.6504C7.81668 34.5649 7.87145 34.4656 7.90491 34.3584C8.51658 32.6468 9.80825 31.0668 11.6666 29.8451C13.5249 28.6218 15.8466 27.8284 18.3416 27.5818C19.2582 27.4918 20.1799 27.4768 21.0899 27.5351C21.7029 26.9756 22.5032 26.6658 23.3332 26.6668H25.4599Z" fill="black"/>
<path d="M29.9999 23.334V36.6673M36.6666 30.0007H23.3333" stroke="black" stroke-linecap="round"/>
</svg>
