<svg width="40" height="40" viewBox="0 0 40 40" fill="none" xmlns="http://www.w3.org/2000/svg">
<path d="M20.765 2.76781C20.5432 2.59489 20.27 2.50098 19.9888 2.50098C19.7075 2.50098 19.4343 2.59489 19.2125 2.76781L1.25 16.7741L2.80375 18.7391L5 17.0266V32.5003C5.00132 33.1629 5.26514 33.7981 5.73369 34.2666C6.20225 34.7352 6.83736 34.999 7.5 35.0003H32.5C33.1626 34.999 33.7978 34.7352 34.2663 34.2666C34.7349 33.7981 34.9987 33.1629 35 32.5003V17.0378L37.1962 18.7503L38.75 16.7853L20.765 2.76781ZM22.5 32.5003H17.5V22.5003H22.5V32.5003ZM25 32.5003V22.5003C24.9993 21.8375 24.7357 21.202 24.267 20.7333C23.7983 20.2646 23.1628 20.001 22.5 20.0003H17.5C16.8372 20.001 16.2017 20.2646 15.733 20.7333C15.2643 21.202 15.0007 21.8375 15 22.5003V32.5003H7.5V15.0778L20 5.34031L32.5 15.0903V32.5003H25Z" fill="black"/>
</svg>
