<svg width="40" height="40" viewBox="0 0 40 40" fill="none" xmlns="http://www.w3.org/2000/svg">
<path d="M35.0001 28.3337V13.3337H11.6667V28.3337H35.0001ZM35.0001 5.00033C35.8841 5.00033 36.732 5.35152 37.3571 5.97664C37.9822 6.60176 38.3334 7.4496 38.3334 8.33366V28.3337C38.3334 29.2177 37.9822 30.0656 37.3571 30.6907C36.732 31.3158 35.8841 31.667 35.0001 31.667H11.6667C10.7827 31.667 9.93485 31.3158 9.30973 30.6907C8.6846 30.0656 8.33342 29.2177 8.33342 28.3337V8.33366C8.33342 7.4496 8.6846 6.60176 9.30973 5.97664C9.93485 5.35152 10.7827 5.00033 11.6667 5.00033H13.3334V1.66699H16.6667V5.00033H30.0001V1.66699H33.3334V5.00033H35.0001ZM29.2168 18.4337L21.8167 25.8337L17.3501 21.367L19.1167 19.6003L21.8167 22.3003L27.4501 16.667L29.2168 18.4337ZM5.00008 35.0003H28.3334V38.3337H5.00008C4.11603 38.3337 3.26818 37.9825 2.64306 37.3573C2.01794 36.7322 1.66675 35.8844 1.66675 35.0003V15.0003H5.00008V35.0003Z" fill="black"/>
</svg>
