<svg width="40" height="40" viewBox="0 0 40 40" fill="none" xmlns="http://www.w3.org/2000/svg">
<path fill-rule="evenodd" clip-rule="evenodd" d="M36 13.8457H4V35.8457H36V13.8457ZM4 11.8457C3.46957 11.8457 2.96086 12.0564 2.58579 12.4315C2.21071 12.8066 2 13.3153 2 13.8457V35.8457C2 36.3761 2.21071 36.8848 2.58579 37.2599C2.96086 37.635 3.46957 37.8457 4 37.8457H36C36.5304 37.8457 37.0391 37.635 37.4142 37.2599C37.7893 36.8848 38 36.3761 38 35.8457V13.8457C38 13.3153 37.7893 12.8066 37.4142 12.4315C37.0391 12.0564 36.5304 11.8457 36 11.8457H4Z" fill="black"/>
<path fill-rule="evenodd" clip-rule="evenodd" d="M12 18.8455C12 18.5803 12.1054 18.326 12.2929 18.1384C12.4805 17.9509 12.7348 17.8455 13 17.8455H27C27.2653 17.8455 27.5196 17.9509 27.7071 18.1384C27.8947 18.326 28 18.5803 28 18.8455C28 19.1108 27.8947 19.3651 27.7071 19.5526C27.5196 19.7402 27.2653 19.8455 27 19.8455H13C12.7348 19.8455 12.4805 19.7402 12.2929 19.5526C12.1054 19.3651 12 19.1108 12 18.8455ZM10 24.8455C10 24.5803 10.1054 24.326 10.2929 24.1384C10.4805 23.9509 10.7348 23.8455 11 23.8455H29C29.2653 23.8455 29.5196 23.9509 29.7071 24.1384C29.8947 24.326 30 24.5803 30 24.8455C30 25.1108 29.8947 25.3651 29.7071 25.5526C29.5196 25.7402 29.2653 25.8455 29 25.8455H11C10.7348 25.8455 10.4805 25.7402 10.2929 25.5526C10.1054 25.3651 10 25.1108 10 24.8455ZM12 30.8455C12 30.5803 12.1054 30.326 12.2929 30.1384C12.4805 29.9509 12.7348 29.8455 13 29.8455H27C27.2653 29.8455 27.5196 29.9509 27.7071 30.1384C27.8947 30.326 28 30.5803 28 30.8455C28 31.1108 27.8947 31.3651 27.7071 31.5526C27.5196 31.7402 27.2653 31.8455 27 31.8455H13C12.7348 31.8455 12.4805 31.7402 12.2929 31.5526C12.1054 31.3651 12 31.1108 12 30.8455ZM23.536 4.79554C23.0717 4.3311 22.5205 3.96269 21.9138 3.71133C21.307 3.45998 20.6568 3.3306 20 3.3306C19.3433 3.3306 18.693 3.45998 18.0863 3.71133C17.4796 3.96269 16.9284 4.3311 16.464 4.79554L8.70804 12.5535C8.52027 12.7413 8.26559 12.8468 8.00004 12.8468C7.73449 12.8468 7.47982 12.7413 7.29204 12.5535C7.10427 12.3658 6.99878 12.1111 6.99878 11.8455C6.99878 11.714 7.02468 11.5838 7.075 11.4624C7.12531 11.3409 7.19907 11.2305 7.29204 11.1375L15.052 3.38154C16.3647 2.06924 18.1449 1.33203 20.001 1.33203C21.8572 1.33203 23.6373 2.06924 24.95 3.38154L32.708 11.1395C32.8009 11.2325 32.8745 11.3429 32.9247 11.4643C32.9749 11.5857 33.0007 11.7158 33.0006 11.8472C33.0005 11.9786 32.9745 12.1087 32.9242 12.2301C32.8738 12.3514 32.8 12.4617 32.707 12.5545C32.6141 12.6474 32.5037 12.721 32.3823 12.7712C32.2609 12.8214 32.1307 12.8472 31.9993 12.8471C31.8679 12.847 31.7379 12.821 31.6165 12.7707C31.4951 12.7203 31.3849 12.6465 31.292 12.5535L23.536 4.79554Z" fill="black"/>
</svg>
