<svg width="40" height="40" viewBox="0 0 40 40" fill="none" xmlns="http://www.w3.org/2000/svg">
<path d="M12 6C10.4087 6 8.88258 6.63214 7.75736 7.75736C6.63214 8.88258 6 10.4087 6 12V28C6 29.5913 6.63214 31.1174 7.75736 32.2426C8.88258 33.3679 10.4087 34 12 34H19.2C18.8729 33.3608 18.6097 32.6909 18.414 32H12C10.9391 32 9.92172 31.5786 9.17157 30.8284C8.42143 30.0783 8 29.0609 8 28V12C8 10.9391 8.42143 9.92172 9.17157 9.17157C9.92172 8.42143 10.9391 8 12 8H28C29.0609 8 30.0783 8.42143 30.8284 9.17157C31.5786 9.92172 32 10.9391 32 12V18.414C32.698 18.612 33.366 18.874 34 19.2V12C34 10.4087 33.3679 8.88258 32.2426 7.75736C31.1174 6.63214 29.5913 6 28 6H12ZM19 20H22.674C24.464 18.74 26.646 18 29 18H19C18.7348 18 18.4804 18.1054 18.2929 18.2929C18.1054 18.4804 18 18.7348 18 19C18 19.2652 18.1054 19.5196 18.2929 19.7071C18.4804 19.8946 18.7348 20 19 20ZM11 10C10.7348 10 10.4804 10.1054 10.2929 10.2929C10.1054 10.4804 10 10.7348 10 11C10 11.2652 10.1054 11.5196 10.2929 11.7071C10.4804 11.8946 10.7348 12 11 12H29C29.2652 12 29.5196 11.8946 29.7071 11.7071C29.8946 11.5196 30 11.2652 30 11C30 10.7348 29.8946 10.4804 29.7071 10.2929C29.5196 10.1054 29.2652 10 29 10H11ZM13 22C13.7956 22 14.5587 21.6839 15.1213 21.1213C15.6839 20.5587 16 19.7956 16 19C16 18.2044 15.6839 17.4413 15.1213 16.8787C14.5587 16.3161 13.7956 16 13 16C12.2044 16 11.4413 16.3161 10.8787 16.8787C10.3161 17.4413 10 18.2044 10 19C10 19.7956 10.3161 20.5587 10.8787 21.1213C11.4413 21.6839 12.2044 22 13 22ZM13 20C12.7348 20 12.4804 19.8946 12.2929 19.7071C12.1054 19.5196 12 19.2652 12 19C12 18.7348 12.1054 18.4804 12.2929 18.2929C12.4804 18.1054 12.7348 18 13 18C13.2652 18 13.5196 18.1054 13.7071 18.2929C13.8946 18.4804 14 18.7348 14 19C14 19.2652 13.8946 19.5196 13.7071 19.7071C13.5196 19.8946 13.2652 20 13 20ZM13 30C13.7956 30 14.5587 29.6839 15.1213 29.1213C15.6839 28.5587 16 27.7956 16 27C16 26.2044 15.6839 25.4413 15.1213 24.8787C14.5587 24.3161 13.7956 24 13 24C12.2044 24 11.4413 24.3161 10.8787 24.8787C10.3161 25.4413 10 26.2044 10 27C10 27.7956 10.3161 28.5587 10.8787 29.1213C11.4413 29.6839 12.2044 30 13 30ZM13 26C13.2652 26 13.5196 26.1054 13.7071 26.2929C13.8946 26.4804 14 26.7348 14 27C14 27.2652 13.8946 27.5196 13.7071 27.7071C13.5196 27.8946 13.2652 28 13 28C12.7348 28 12.4804 27.8946 12.2929 27.7071C12.1054 27.5196 12 27.2652 12 27C12 26.7348 12.1054 26.4804 12.2929 26.2929C12.4804 26.1054 12.7348 26 13 26ZM38 29C38 31.3869 37.0518 33.6761 35.364 35.364C33.6761 37.0518 31.3869 38 29 38C26.6131 38 24.3239 37.0518 22.636 35.364C20.9482 33.6761 20 31.3869 20 29C20 26.6131 20.9482 24.3239 22.636 22.636C24.3239 20.9482 26.6131 20 29 20C31.3869 20 33.6761 20.9482 35.364 22.636C37.0518 24.3239 38 26.6131 38 29ZM30 25C30 24.7348 29.8946 24.4804 29.7071 24.2929C29.5196 24.1054 29.2652 24 29 24C28.7348 24 28.4804 24.1054 28.2929 24.2929C28.1054 24.4804 28 24.7348 28 25V28H25C24.7348 28 24.4804 28.1054 24.2929 28.2929C24.1054 28.4804 24 28.7348 24 29C24 29.2652 24.1054 29.5196 24.2929 29.7071C24.4804 29.8946 24.7348 30 25 30H28V33C28 33.2652 28.1054 33.5196 28.2929 33.7071C28.4804 33.8946 28.7348 34 29 34C29.2652 34 29.5196 33.8946 29.7071 33.7071C29.8946 33.5196 30 33.2652 30 33V30H33C33.2652 30 33.5196 29.8946 33.7071 29.7071C33.8946 29.5196 34 29.2652 34 29C34 28.7348 33.8946 28.4804 33.7071 28.2929C33.5196 28.1054 33.2652 28 33 28H30V25Z" fill="black"/>
</svg>
